<?xml version="1.0" encoding="UTF-8"?>
<svg version="1.1" xmlns="http://www.w3.org/2000/svg" width="3172" height="1344">
<path d="M0 0 C1046.76 0 2093.52 0 3172 0 C3172 443.52 3172 887.04 3172 1344 C2125.24 1344 1078.48 1344 0 1344 C0 900.48 0 456.96 0 0 Z " fill="#E0DFDF" transform="translate(0,0)"/>
<path d="M0 0 C1.6325714 0.88693225 3.24676575 1.80829708 4.84375 2.7578125 C5.75310303 3.29656006 6.66245605 3.83530762 7.59936523 4.39038086 C8.55657471 4.96280518 9.51378418 5.53522949 10.5 6.125 C11.49394775 6.71611572 12.48789551 7.30723145 13.51196289 7.91625977 C19.5256324 11.49992589 25.51162566 15.12300429 31.4609375 18.8125 C39.18454481 23.59921819 46.96670349 28.29169709 54.73144531 33.01123047 C57.52986314 34.71394272 60.32659513 36.41937942 63.12242126 38.12634277 C80.02870204 48.44650018 96.98246816 58.68961772 114.25 68.3984375 C115.18803467 68.92715454 115.18803467 68.92715454 116.14501953 69.46655273 C117.69495468 70.33645001 119.24952756 71.19807192 120.8046875 72.05859375 C123.55152665 73.7275168 126.13328061 75.48629959 128.75 77.34765625 C133.71999914 80.86269302 138.85506051 83.96008111 144.125 87 C156.24596561 94.07587628 168.13913829 101.49825841 180 109 C181.02818848 109.6487207 182.05637695 110.29744141 183.11572266 110.96582031 C184.11522949 111.59842773 185.11473633 112.23103516 186.14453125 112.8828125 C187.05178955 113.45660645 187.95904785 114.03040039 188.89379883 114.62158203 C191 116 191 116 192 117 C192.15768551 118.84566396 192.2463905 120.69724355 192.30867004 122.54858398 C192.35050919 123.75385742 192.39234833 124.95913086 192.43545532 126.20092773 C192.47658029 127.54930659 192.51737091 128.89769569 192.55786133 130.24609375 C192.60339078 131.65706537 192.64896996 133.06803539 192.69459534 134.47900391 C193.09955728 147.41978501 193.3397396 160.36393603 193.5328722 173.30943298 C193.6658395 182.00849414 193.85091841 190.70003695 194.16723633 199.39453125 C194.4432783 206.98393883 194.61819115 214.56802756 194.67514819 222.16235447 C194.70858723 226.17951065 194.78919962 230.18203273 194.99100685 234.19454956 C196.13719987 257.92748687 196.13719987 257.92748687 190.7384181 264.54679275 C184.13999068 270.99797876 175.61288117 274.89244803 167.25827885 278.54569626 C163.16384616 280.37320982 159.41454109 282.57739147 155.625 284.95703125 C153.41787791 286.24426658 151.20959291 287.52951057 149 288.8125 C146.5576723 290.23670551 144.11660654 291.66306523 141.67578125 293.08984375 C141.09298904 293.43033752 140.51019684 293.7708313 139.90974426 294.12164307 C134.21969648 297.44943224 128.56696043 300.83727167 122.92211914 304.2409668 C117.54870076 307.47805233 112.16103944 310.6903851 106.765625 313.890625 C106.04051224 314.32073883 105.31539948 314.75085266 104.5683136 315.19400024 C100.92089495 317.35701751 97.27267454 319.51867395 93.6237793 321.67919922 C92.27912507 322.47622172 90.9344795 323.27325882 89.58984375 324.0703125 C88.96889832 324.43747375 88.34795288 324.80463501 87.70819092 325.18292236 C85.09375668 326.73335647 82.53002012 328.31331992 80 330 C80 330.66 80 331.32 80 332 C82.27962411 333.61985401 82.27962411 333.61985401 85.23828125 335.2734375 C86.91881592 336.25389038 86.91881592 336.25389038 88.63330078 337.25415039 C89.23305725 337.59979034 89.83281372 337.9454303 90.45074463 338.30154419 C93.58447833 340.10840061 96.70393236 341.93958143 99.82421875 343.76953125 C100.7588092 344.31664009 100.7588092 344.31664009 101.71228027 344.87480164 C106.75224683 347.8333306 111.70651106 350.90731498 116.625 354.0625 C123.73549363 358.61250317 130.93681239 362.98953658 138.1875 367.3125 C149.65520436 374.15390326 160.99246083 381.18838826 172.29394531 388.30029297 C174.86654866 389.91617753 177.44370273 391.52443707 180.0234375 393.12890625 C180.77681396 393.59772217 181.53019043 394.06653809 182.30639648 394.54956055 C183.68558624 395.40734737 185.06527393 396.26433432 186.44555664 397.12036133 C190.88860864 399.88860864 190.88860864 399.88860864 192 401 C192.09710803 402.62118842 192.12371591 404.24663446 192.12304783 405.87072849 C192.1260344 407.46214345 192.1260344 407.46214345 192.12908131 409.0857082 C192.12616847 410.26564364 192.12325563 411.44557908 192.12025452 412.66127014 C192.12153615 414.52465166 192.12153615 414.52465166 192.12284368 416.42567724 C192.12421194 419.88951717 192.1210642 423.35330129 192.11606562 426.8171345 C192.11176463 430.54653146 192.11320729 434.27592657 192.1139679 438.00532532 C192.11449336 444.47198461 192.11134427 450.93863384 192.10573006 457.4052906 C192.09761802 466.75509851 192.09500014 476.10490152 192.09374207 485.45471256 C192.09155108 500.62256179 192.08488973 515.79040564 192.07543945 530.95825195 C192.06626654 545.69620741 192.05918512 560.43416141 192.05493164 575.17211914 C192.05453756 576.53379504 192.05453756 576.53379504 192.05413551 577.92297954 C192.05283051 582.47686656 192.05156679 587.03075359 192.05032361 591.58464062 C192.03994954 629.3897642 192.02232996 667.19488168 192 705 C187.3196232 703.51819287 183.46948248 701.60864421 179.375 698.9375 C177.95829024 698.03318087 176.54020813 697.1310097 175.12109375 696.23046875 C174.32171387 695.72306152 173.52233398 695.2156543 172.69873047 694.69287109 C167.31641419 691.31662891 161.87275653 688.04004571 156.4375 684.75 C154.6269472 683.65311696 152.81650906 682.55604483 151.006073 681.45896912 C149.79659998 680.72609107 148.58706631 679.9933131 147.37747192 679.26063538 C143.29861672 676.7893525 139.22425282 674.31083794 135.15234375 671.828125 C134.09152588 671.18133789 133.03070801 670.53455078 131.93774414 669.86816406 C129.9352786 668.64673191 127.93314852 667.42474958 125.93139648 666.20214844 C125.04395752 665.66106445 124.15651855 665.11998047 123.2421875 664.5625 C122.4672998 664.08941406 121.69241211 663.61632813 120.89404297 663.12890625 C119.00856725 661.97354175 119.00856725 661.97354175 117 661 C117 588.73 117 516.46 117 442 C115.35 441.34 113.7 440.68 112 440 C110.59000875 439.21029912 109.20045028 438.38316546 107.83203125 437.5234375 C107.03514893 437.02610107 106.2382666 436.52876465 105.41723633 436.01635742 C104.55767334 435.47470947 103.69811035 434.93306152 102.8125 434.375 C100.91694249 433.19096456 99.02109605 432.00739159 97.125 430.82421875 C96.12597656 430.19950684 95.12695312 429.57479492 94.09765625 428.93115234 C88.85035003 425.65985725 83.5808838 422.42469968 78.3125 419.1875 C76.10411986 417.8295032 73.89578696 416.47142957 71.6875 415.11328125 C70.5840625 414.43475098 69.480625 413.7562207 68.34375 413.05712891 C65.01990475 411.01224572 61.69726304 408.96542134 58.375 406.91796875 C56.18754786 405.57023482 54.00004819 404.22257803 51.8125 402.875 C50.21124268 401.88850464 50.21124268 401.88850464 48.57763672 400.88208008 C43.25109549 397.60392813 37.91772044 394.337768 32.5703125 391.09375 C31.53801514 390.46742676 30.50571777 389.84110352 29.44213867 389.19580078 C27.51114762 388.02562679 25.57910493 386.85718547 23.64575195 385.69091797 C22.77136475 385.16127441 21.89697754 384.63163086 20.99609375 384.0859375 C20.15933105 383.58030273 19.32256836 383.07466797 18.46044922 382.55371094 C15.22973808 380.51359924 12.14934591 378.2789423 9.09008789 375.99072266 C6.24830074 374.643687 4.96308346 375.01695743 2 376 C-0.77294857 377.40397493 -0.77294857 377.40397493 -3.62890625 379.21875 C-4.73194092 379.89502441 -5.83497559 380.57129883 -6.97143555 381.26806641 C-8.16848755 382.01199516 -9.36550818 382.75597442 -10.5625 383.5 C-11.81306811 384.26951407 -13.064135 385.03821807 -14.31567383 385.80615234 C-16.91782411 387.40372562 -19.51778828 389.00476986 -22.11621094 390.60839844 C-27.56124482 393.96563235 -33.02972772 397.28407991 -38.4994812 400.60083008 C-40.08906283 401.56527531 -41.67750408 402.53159936 -43.26586914 403.49804688 C-44.30606201 404.13033203 -45.34625488 404.76261719 -46.41796875 405.4140625 C-47.46985886 406.08425919 -48.52174896 406.75445587 -49.60551453 407.44496155 C-52.99963952 409.51819618 -56.49028577 411.15391825 -60.11566162 412.7855072 C-72.05371575 418.22104677 -72.05371575 418.22104677 -80.42147255 427.80728149 C-82.57071939 435.69605317 -82.02113978 443.75071239 -81.66015625 451.83984375 C-81.63592443 454.41907437 -81.62279513 456.99843088 -81.620224 459.57777405 C-81.58768688 465.63862747 -81.44469054 471.68729679 -81.24585861 477.74466664 C-81.02556687 484.64859331 -80.94972847 491.55187621 -80.88484776 498.45873821 C-80.7484199 512.64387312 -80.43437492 526.82101201 -80 541 C-84.03814133 539.42456634 -87.79381572 537.56997069 -91.5625 535.4375 C-92.57485718 534.86636475 -92.57485718 534.86636475 -93.60766602 534.28369141 C-103.3831399 528.70834225 -113.23095546 522.99859513 -122.62325364 516.79191744 C-126.66161349 514.18762769 -130.64004037 512.32133921 -135.13498211 510.61375999 C-142.43396619 507.54460633 -148.90017339 504.19958686 -154 498 C-158.48378285 486.74442739 -157.49869902 473.83996351 -157.31209385 461.93013668 C-157.26142264 456.95564175 -157.35525741 451.98347244 -157.42982483 447.00956726 C-157.5522415 437.28083398 -157.53980828 427.55681163 -157.47758386 417.82768227 C-157.42921689 409.91681524 -157.42881766 402.00728921 -157.4622097 394.09635544 C-157.4669067 392.96817333 -157.47160369 391.83999122 -157.47644302 390.67762177 C-157.48615361 388.38532883 -157.49595607 386.09303627 -157.50584938 383.8007441 C-157.59255457 362.32994036 -157.52399973 340.86176171 -157.40348788 319.3912615 C-157.30407865 300.99325576 -157.34450762 282.59982287 -157.4855957 264.20214844 C-157.64962797 242.80867626 -157.72144053 221.41800677 -157.65123624 200.02392805 C-157.6440279 197.73971116 -157.63695724 195.45549384 -157.63002586 193.17127609 C-157.62659111 192.04757191 -157.62315636 190.92386774 -157.61961753 189.76611192 C-157.60194519 181.87130248 -157.6501055 173.97849049 -157.72457314 166.08406448 C-157.8138723 156.4516034 -157.80297643 146.8253799 -157.6658685 137.19338085 C-157.59850207 132.28231528 -157.57480441 127.38192767 -157.67420959 122.4711628 C-158.19800319 94.47515257 -158.19800319 94.47515257 -152.71600053 87.32537216 C-146.23155448 80.65016367 -137.70551402 76.82736755 -129.2164129 73.35434985 C-125.16374795 71.64787548 -121.66840352 69.53734122 -117.984375 67.1484375 C-116.93507813 66.51357422 -115.88578125 65.87871094 -114.8046875 65.22460938 C-104.17597088 58.78893506 -93.60190369 52.27414548 -83.0793457 45.66577148 C-72.48786479 39.02692433 -61.79486732 32.55741584 -51.09997559 26.08721924 C-46.31787511 23.19394544 -41.54089902 20.2923421 -36.76733398 17.38500977 C-34.86602339 16.22804614 -32.96323161 15.07351252 -31.05883789 13.92163086 C-26.58341993 11.21028111 -22.14196025 8.46205498 -17.75 5.6171875 C-16.92516113 5.09044434 -16.10032227 4.56370117 -15.25048828 4.02099609 C-13.71296769 3.03654046 -12.18452514 2.03769798 -10.66748047 1.02197266 C-9.99088379 0.59190918 -9.31428711 0.1618457 -8.6171875 -0.28125 C-8.03565918 -0.66345703 -7.45413086 -1.04566406 -6.85498047 -1.43945312 C-4.050623 -2.28688728 -2.57323255 -1.27808272 0 0 Z " fill="#010101" transform="translate(1395,380)"/>
<path d="M0 0 C2.80546505 1.41395856 5.50969287 2.91795744 8.20947266 4.52539062 C9.835625 5.4907373 9.835625 5.4907373 11.49462891 6.47558594 C12.66271716 7.17427942 13.83068295 7.87317766 14.99853516 8.57226562 C16.21068155 9.29475272 17.42292238 10.0170814 18.63525391 10.73925781 C33.89472985 19.8404182 49.08716367 29.04198899 64.07958984 38.57763672 C74.68774055 45.299655 85.46130986 51.75487945 96.20654297 58.25439453 C109.2390919 66.14134005 122.24428997 74.07332406 135.22479248 82.04562378 C136.40099116 82.7678521 137.57746136 83.48963843 138.75421143 84.21096802 C140.3859942 85.2115059 142.01651473 86.2141015 143.64697266 87.21679688 C144.58460449 87.79276611 145.52223633 88.36873535 146.48828125 88.9621582 C148.62353516 90.32226562 148.62353516 90.32226562 149.62353516 91.32226562 C149.72123393 93.77597183 149.75349756 96.20149732 149.74378967 98.65565491 C149.74507131 99.82074897 149.74507131 99.82074897 149.74637884 101.00938028 C149.748036 103.63200884 149.74250844 106.25457452 149.73706055 108.87719727 C149.7367787 110.74924213 149.73693636 112.62128711 149.73750305 114.49333191 C149.73779112 119.59229323 149.73189285 124.69123124 149.72492909 129.79018712 C149.71869715 135.11268195 149.71809188 140.43517726 149.71690369 145.75767517 C149.7137899 155.84411454 149.70557587 165.93054312 149.6955542 176.01697773 C149.68439453 187.49682942 149.67888298 198.97668161 149.67385876 210.45653737 C149.6633933 234.07845277 149.64579294 257.7003586 149.62353516 281.32226562 C148.53705688 281.93143829 147.45057861 282.54061096 146.33117676 283.16824341 C144.88499015 283.98012864 143.43882426 284.79205076 141.99267578 285.60400391 C141.2790387 286.00400101 140.56540161 286.40399811 139.83013916 286.81611633 C133.86149163 290.16883026 127.97760342 293.64829035 122.12353516 297.19726562 C119.96644669 298.49881555 117.80886956 299.79955584 115.65087891 301.09960938 C115.09049423 301.43732864 114.53010956 301.77504791 113.95274353 302.1230011 C109.58500196 304.75197281 105.20280948 307.35595417 100.81494141 309.95117188 C100.15026855 310.34433594 99.4855957 310.7375 98.80078125 311.14257812 C98.13143555 311.53848145 97.46208984 311.93438477 96.77246094 312.34228516 C80.32992949 322.06769593 64.02892849 332.00007882 47.79833984 342.07617188 C45.24230608 343.66185097 42.68319398 345.24244774 40.12353516 346.82226562 C39.38119629 347.28568359 38.63885742 347.74910156 37.87402344 348.2265625 C32.85014641 351.32226562 32.85014641 351.32226562 30.62353516 351.32226562 C30.69209717 352.15709473 30.76065918 352.99192383 30.83129883 353.85205078 C31.6080058 364.20304456 31.8739251 374.52489753 31.91870117 384.90380859 C31.93032429 386.77693167 31.95093479 388.65001909 31.98022461 390.52294922 C32.02303348 393.27658816 32.03907204 396.02927239 32.04931641 398.78320312 C32.06682449 399.60839447 32.08433258 400.43358582 32.10237122 401.28378296 C32.08233103 406.70746519 30.95767239 410.57553171 28.45915222 415.39590454 C27.20702876 418.28244433 27.87435361 420.32553942 28.62353516 423.32226562 C29.59217421 431.93805511 27.29211751 440.27951596 21.99853516 447.19726562 C16.71602995 452.69160062 10.42151426 455.59565826 2.81103516 455.75976562 C-0.16090769 455.68513781 -2.15024918 455.42042141 -4.88818359 454.23242188 C-7.94731772 453.11346073 -9.26523579 453.44199015 -12.37646484 454.32226562 C-14.74030572 455.638985 -14.74030572 455.638985 -17.02880859 457.34179688 C-17.88796875 457.95216797 -18.74712891 458.56253906 -19.63232422 459.19140625 C-20.51726562 459.83271484 -21.40220703 460.47402344 -22.31396484 461.13476562 C-24.07273163 462.39176281 -25.83183788 463.64828519 -27.59130859 464.90429688 C-28.36595459 465.4635083 -29.14060059 466.02271973 -29.9387207 466.59887695 C-30.74317627 467.16759521 -31.54763184 467.73631348 -32.37646484 468.32226562 C-33.24102295 469.04470459 -34.10558105 469.76714355 -34.99633789 470.51147461 C-39.78591169 473.07733007 -43.89556465 472.82362379 -49.24365234 472.71289062 C-50.27837677 472.70723083 -51.3131012 472.70157104 -52.37918091 472.69573975 C-55.67042114 472.67342415 -58.96055598 472.62323528 -62.25146484 472.57226562 C-64.48842824 472.55219446 -66.72540877 472.53394477 -68.96240234 472.51757812 C-74.4341797 472.47357488 -79.90513512 472.40457935 -85.37646484 472.32226562 C-85.37646484 467.37226562 -85.37646484 462.42226563 -85.37646484 457.32226562 C-84.15765625 457.34957764 -82.93884766 457.37688965 -81.68310547 457.4050293 C-77.08288963 457.49304801 -72.4847583 457.50640844 -67.88378906 457.49926758 C-65.90738387 457.50616687 -63.93093502 457.53228577 -61.95507812 457.5793457 C-47.81048233 457.8986935 -38.85933316 455.9753297 -28.0072937 446.64694214 C-26.37646484 445.32226562 -26.37646484 445.32226562 -22.96875 443.24780273 C-20.22326459 441.61621291 -20.22326459 441.61621291 -19.75878906 439.15917969 C-19.84410889 438.0101416 -19.84410889 438.0101416 -19.93115234 436.83789062 C-19.96853516 435.98453125 -20.00591797 435.13117188 -20.04443359 434.25195312 C-20.11275391 433.36765625 -20.18107422 432.48335937 -20.25146484 431.57226562 C-20.85659855 422.89439081 -19.83229475 417.33850038 -14.06396484 410.63476562 C-3.52707478 401.56813929 -0.63903286 402.32226562 15.62353516 402.32226562 C15.29353516 388.79226563 14.96353516 375.26226563 14.62353516 361.32226562 C10.51916016 363.81789063 6.41478516 366.31351563 2.18603516 368.88476562 C-10.29070574 376.46410103 -22.79682324 383.99324 -35.32177734 391.49267578 C-40.40439815 394.53688617 -45.48406452 397.58601846 -50.56396484 400.63476562 C-56.63280842 404.27702976 -62.70193601 407.91881008 -68.77403259 411.5556488 C-71.29807515 413.06753193 -73.82173203 414.58005823 -76.34536743 416.09262085 C-81.17972256 418.98926471 -81.17972256 418.98926471 -83.22697639 420.201828 C-84.37564594 420.8984685 -85.51068966 421.6181187 -86.63030815 422.36054993 C-91.01788345 425.19299896 -95.31335734 427.06230039 -100.23948669 428.80595398 C-108.30533476 431.93985366 -116.52452555 435.84312235 -121.37646484 443.32226562 C-126.88594815 457.05782099 -124.46688138 474.51505465 -123.89051914 488.93911815 C-123.68263593 494.99895962 -123.64851812 501.05960916 -123.5993042 507.12245178 C-123.46986868 519.89471831 -123.16890846 532.65857542 -122.83001709 545.42675781 C-122.32141179 564.66674745 -121.9570462 583.90910505 -121.74078536 603.1545592 C-121.65347763 610.36059707 -121.47966784 617.55775979 -121.23574972 624.76013458 C-121.09873203 629.23981745 -121.02743726 633.71889261 -120.97255516 638.20026016 C-120.93315571 640.27217597 -120.86600452 642.34378444 -120.76863289 644.41378593 C-120.07226947 659.62120678 -120.07226947 659.62120678 -123.89523411 664.10262036 C-127.65810826 667.2561891 -131.81117099 669.37674639 -136.28098822 671.35147202 C-139.70381849 672.93720278 -142.85668834 674.94553564 -146.06005859 676.92773438 C-147.33690826 677.68724169 -148.61521165 678.44431498 -149.89550781 679.19799805 C-150.53566833 679.57572357 -151.17582886 679.9534491 -151.83538818 680.34262085 C-152.48831848 680.72777863 -153.14124878 681.1129364 -153.81396484 681.50976562 C-156.5971619 683.15450984 -159.37956614 684.8005904 -162.16162109 686.44726562 C-162.85046387 686.8548259 -163.53930664 687.26238617 -164.24902344 687.68229675 C-168.82520407 690.3932964 -173.38532501 693.12963966 -177.93505859 695.88476562 C-178.52034836 696.23863846 -179.10563812 696.59251129 -179.70866394 696.95710754 C-182.45453713 698.61756041 -185.19773453 700.28213824 -187.93676758 701.95385742 C-188.89397705 702.53304932 -189.85118652 703.11224121 -190.83740234 703.70898438 C-192.087229 704.47021606 -192.087229 704.47021606 -193.36230469 705.24682617 C-195.37646484 706.32226562 -195.37646484 706.32226562 -197.37646484 706.32226562 C-197.58240404 667.69671129 -197.74102071 629.07123956 -197.83605281 590.44524743 C-197.84730935 585.88651171 -197.85895823 581.32777708 -197.87084961 576.76904297 C-197.8732104 575.86146994 -197.8755712 574.95389691 -197.87800353 574.01882167 C-197.91717994 559.31782589 -197.9881488 544.61714642 -198.07084001 529.91633837 C-198.15496399 514.83518363 -198.20498534 499.75419471 -198.2232613 484.67281497 C-198.23561899 475.36440373 -198.27466585 466.05688648 -198.34771305 456.7487504 C-198.39523826 450.36828645 -198.40967714 443.98828552 -198.39797724 437.60765736 C-198.39220432 433.92436601 -198.40113259 430.24263795 -198.44931412 426.55962372 C-198.50115925 422.56743771 -198.48338515 418.57729463 -198.45875549 414.58480835 C-198.48497107 413.41943712 -198.51118664 412.25406588 -198.53819662 411.05338037 C-198.41003405 403.39414885 -198.41003405 403.39414885 -195.45673168 400.33136868 C-193.15645382 398.7730641 -190.87394024 397.53350262 -188.37646484 396.32226562 C-186.88703921 395.42865209 -185.40411594 394.5240112 -183.93115234 393.60351562 C-182.37243884 392.67444581 -180.81248948 391.74744701 -179.25146484 390.82226562 C-177.48414933 389.76822914 -175.71723823 388.71351434 -173.95068359 387.65820312 C-173.03722168 387.11260742 -172.12375977 386.56701172 -171.18261719 386.00488281 C-166.46274927 383.17476887 -161.76306341 380.31169145 -157.06396484 377.44726562 C-156.10474121 376.86267578 -155.14551758 376.27808594 -154.15722656 375.67578125 C-152.20464656 374.48552551 -150.25217285 373.29509538 -148.29980469 372.10449219 C-143.49365605 369.17440324 -138.68495287 366.24851327 -133.87646484 363.32226562 C-128.1847112 359.85799215 -122.4931259 356.39344319 -116.80224609 352.92773438 C-112.01857797 350.01457368 -107.23376207 347.10330322 -102.44873047 344.19238281 C-99.24130482 342.23999244 -96.03545277 340.28503329 -92.82958984 338.33007812 C-78.9688399 329.88641252 -65.05365093 321.54051393 -51.08959961 313.26879883 C-43.00324174 308.47849388 -34.93064018 303.66658624 -26.87646484 298.82226562 C-18.14327486 293.56954011 -9.38644929 288.35817156 -0.61825562 283.16421509 C10.27013126 276.71400037 21.12849245 270.21959363 31.93603516 263.63476562 C40.91376643 258.1698076 49.90214782 252.72397132 58.93099976 247.34384155 C60.13424854 246.62615922 61.33659505 245.90696178 62.53799438 245.18618774 C64.19154845 244.19470674 65.84885532 243.2094925 67.50634766 242.22460938 C68.44881348 241.66249756 69.3912793 241.10038574 70.36230469 240.52124023 C72.62353516 239.32226562 72.62353516 239.32226562 74.62353516 239.32226562 C74.62353516 203.68226563 74.62353516 168.04226563 74.62353516 131.32226562 C72.64353516 130.66226563 70.66353516 130.00226563 68.62353516 129.32226562 C66.27396668 127.97763306 64.01549728 126.60524346 61.74853516 125.13476562 C60.33085157 124.23197391 58.91286278 123.32966137 57.49462891 122.42773438 C56.72103027 121.93321777 55.94743164 121.43870117 55.15039062 120.92919922 C50.39110352 117.90256852 45.59754491 114.93057572 40.81103516 111.94726562 C31.7619185 106.29567446 22.73206162 100.61438119 13.71728516 94.90820312 C12.69441406 94.27156738 12.69441406 94.27156738 11.65087891 93.62207031 C10.2642066 92.73302366 8.90252978 91.80408576 7.56494141 90.84277344 C4.33922406 88.59374882 2.32945981 87.37280916 -1.64990234 87.08789062 C-7.26397072 88.94747721 -12.00105815 91.95193837 -17.00146484 95.07226562 C-18.11030029 95.75111816 -19.21913574 96.4299707 -20.36157227 97.12939453 C-23.70743293 99.18171408 -27.04297941 101.24992098 -30.37646484 103.32226562 C-32.15090647 104.41910196 -33.92562257 105.51549446 -35.70068359 106.61132812 C-38.20667516 108.16036674 -40.71145299 109.71124786 -43.21337891 111.2668457 C-50.52936738 115.81423192 -57.88571532 120.29367928 -65.25146484 124.75976562 C-65.84616577 125.1204715 -66.4408667 125.48117737 -67.05358887 125.85281372 C-72.22177897 128.98738609 -77.39112679 132.12004497 -82.56152344 135.25097656 C-85.52161424 137.04402179 -88.48038464 138.83922928 -91.43896484 140.63476562 C-92.26831543 141.13613037 -93.09766602 141.63749512 -93.95214844 142.15405273 C-95.69160364 143.21035501 -97.40942216 144.30283864 -99.10791016 145.42382812 C-101.84357262 147.01275189 -104.31770866 148.10357143 -107.24658203 149.23632812 C-112.88720716 151.67797642 -117.79913088 154.17422058 -121.37646484 159.32226562 C-124.28414361 169.23958792 -123.16516503 180.18729366 -122.62005615 190.39160156 C-122.30843774 196.45011789 -122.13368981 202.51132892 -122.01021957 208.57625198 C-121.94784536 210.68460241 -121.82351936 212.7825451 -121.69168091 214.88754272 C-121.38774087 224.16956103 -121.38774087 224.16956103 -124.16868591 227.41172791 C-126.5020554 228.99595622 -128.80438941 230.1727957 -131.37646484 231.32226562 C-132.5582351 232.0239697 -133.73109637 232.74105813 -134.89135742 233.4777832 C-136.00663818 234.13415771 -137.12191895 234.79053223 -138.27099609 235.46679688 C-138.89315506 235.83427536 -139.51531403 236.20175385 -140.15632629 236.58036804 C-141.48189094 237.36319296 -142.80806913 238.14497978 -144.13482666 238.92578125 C-147.67051986 241.00675022 -151.20157973 243.09553561 -154.73193359 245.18554688 C-155.44998169 245.61058502 -156.16802979 246.03562317 -156.90783691 246.47354126 C-165.49140258 251.56338886 -174.00978973 256.7605036 -182.51635742 261.9777832 C-183.5968335 262.6380249 -184.67730957 263.2982666 -185.79052734 263.97851562 C-186.72848145 264.55408203 -187.66643555 265.12964844 -188.6328125 265.72265625 C-191.49080451 267.38892815 -194.41230216 268.85510344 -197.37646484 270.32226562 C-197.58673285 250.60777137 -197.74542639 230.89350471 -197.84277439 211.17812157 C-197.88917706 202.02380256 -197.95243494 192.87018034 -198.05541992 183.71630859 C-198.14514247 175.73746961 -198.20319243 167.75913521 -198.2232613 159.77980578 C-198.23499277 155.55471049 -198.2625452 151.33105866 -198.32803535 147.10642624 C-198.38920221 143.12839132 -198.40795609 139.15239163 -198.39443398 135.17393112 C-198.39690685 133.71536182 -198.41477149 132.25672341 -198.44931412 130.7985611 C-198.69760301 119.77524467 -198.69760301 119.77524467 -195.40258217 116.15140247 C-193.11447223 114.60345869 -190.90076524 113.43197427 -188.37646484 112.32226562 C-187.4525293 111.7414624 -186.52859375 111.16065918 -185.57666016 110.56225586 C-184.79387695 110.08989502 -184.01109375 109.61753418 -183.20458984 109.13085938 C-182.30458252 108.58582764 -181.4045752 108.0407959 -180.47729492 107.47924805 C-179.536521 106.91181885 -178.59574707 106.34438965 -177.62646484 105.75976562 C-170.12312337 101.21448957 -162.63928931 96.64142155 -155.18896484 92.00976562 C-136.62106006 80.48461532 -117.89529165 69.21827635 -99.14852905 57.98724365 C-88.19122068 51.4222267 -77.27092795 44.79836313 -66.36669922 38.14550781 C-60.7482853 34.71977993 -55.12549204 31.30126755 -49.50146484 27.88476562 C-48.91673401 27.52949799 -48.33200317 27.17423035 -47.72955322 26.80819702 C-38.0231722 20.91243824 -28.29347665 15.0565209 -18.54492188 9.23071289 C-17.5869873 8.65764404 -16.62905273 8.0845752 -15.64208984 7.49414062 C-14.74039062 6.95982422 -13.83869141 6.42550781 -12.90966797 5.875 C-11.27004283 4.86998691 -9.65620593 3.82108292 -8.07763672 2.72265625 C-7.38734375 2.24505859 -6.69705078 1.76746094 -5.98583984 1.27539062 C-5.11137207 0.63585449 -5.11137207 0.63585449 -4.21923828 -0.01660156 C-2.37646484 -0.67773438 -2.37646484 -0.67773438 0 0 Z " fill="#020202" transform="translate(1813.37646484375,378.677734375)"/>
<path d="M0 0 C4.16433036 1.99296594 7.95632276 4.37830487 11.81640625 6.90234375 C13.52743903 8.00188022 15.23971668 9.0994815 16.953125 10.1953125 C17.82630371 10.75395996 18.69948242 11.31260742 19.59912109 11.88818359 C23.56884808 14.39833117 27.5939601 16.81139774 31.62890625 19.21484375 C33.29697711 20.21076649 34.96494173 21.2068672 36.6328125 22.203125 C37.51469238 22.72986816 38.39657227 23.25661133 39.30517578 23.79931641 C44.90229639 27.15039234 50.48684787 30.52213162 56.06640625 33.90234375 C56.66660583 34.26587952 57.26680542 34.62941528 57.88519287 35.00396729 C66.56801427 40.26871324 75.24513954 45.5541857 83.67623901 51.2167511 C88.65169699 54.5026006 93.55998573 57.21009111 99.04272461 59.56445312 C116.84903938 67.6631833 116.84903938 67.6631833 120.822052 75.9135437 C123.24512975 84.75006764 123.22025264 93.65200718 122.78848648 102.74880981 C122.69073809 104.98009582 122.6398358 107.20840087 122.59945679 109.44140625 C122.01043779 135.9428656 122.01043779 135.9428656 115.22875977 143.58009338 C109.87155616 148.28756122 103.19956378 150.57797175 96.43579102 152.53553772 C89.12421302 154.65176907 83.0849866 158.35474933 76.67352295 162.37435913 C73.66235088 164.24383512 70.5949015 166.01524602 67.53125 167.796875 C62.79794594 170.57707993 58.07763296 173.37665033 53.37890625 176.21484375 C45.26325646 181.11044333 37.06525562 185.86343252 28.875 190.6328125 C21.62015964 194.85801589 14.37293158 199.09613275 7.12890625 203.33984375 C6.50993469 203.70230194 5.89096313 204.06476013 5.25323486 204.4382019 C-3.01832958 209.28315447 -11.26346655 214.16746784 -19.44921875 219.15625 C-21.80859375 220.52734375 -21.80859375 220.52734375 -22.80859375 220.52734375 C-22.80859375 191.15734375 -22.80859375 161.78734375 -22.80859375 131.52734375 C-13.80859375 126.52734375 -13.80859375 126.52734375 -10.80859375 125.52734375 C-9.74142671 123.72801796 -9.74142671 123.72801796 -8.80859375 121.52734375 C-8.29296875 120.70234375 -7.77734375 119.87734375 -7.24609375 119.02734375 C-3.36835924 112.28345764 -3.6104512 102.44201764 -5.421875 95.01171875 C-8.33999911 88.48129122 -13.99820026 84.26978771 -19.93359375 80.58984375 C-26.24682353 78.28754207 -34.12059587 78.35758231 -40.46875 80.37109375 C-47.31321708 83.84615765 -51.97200794 89.32812977 -55.74609375 95.90234375 C-58.00462248 103.60791237 -57.23315471 110.47399843 -54.2734375 117.91015625 C-50.51879414 124.61845238 -44.52971554 128.23301499 -37.80859375 131.52734375 C-37.15647455 144.00818072 -36.66078435 156.48490833 -36.35785294 168.97937679 C-36.21233927 174.78399907 -36.01565809 180.57689272 -35.69628906 186.37475586 C-33.6218636 225.0231015 -33.6218636 225.0231015 -40.48608398 233.25958252 C-46.63285021 239.26693465 -54.3860078 242.45671256 -62.39440918 245.24514771 C-66.60193691 246.82528355 -70.18441372 248.96874169 -73.93609619 251.41685486 C-75.80859375 252.52734375 -75.80859375 252.52734375 -77.80859375 252.52734375 C-78.20592677 225.71123915 -78.50559649 198.8955763 -78.68940067 172.07711983 C-78.77701856 159.62430484 -78.89643659 147.17331986 -79.09106445 134.72167969 C-79.26064771 123.86712417 -79.37021356 113.01389383 -79.40809816 102.15805042 C-79.43024255 96.41043128 -79.48216254 90.66660257 -79.60600471 84.92020035 C-79.72172609 79.50656808 -79.75693769 74.09827098 -79.73142433 68.68351936 C-79.73608809 66.70075354 -79.76974312 64.71780307 -79.83508682 62.73610878 C-80.21811422 50.51690175 -80.21811422 50.51690175 -77.80859375 45.52734375 C-73.68362922 41.16014118 -68.32330704 38.76263096 -62.86964881 36.44716334 C-59.92798902 35.13434237 -57.33698525 33.47981926 -54.63671875 31.7265625 C-53.71608643 31.14849854 -52.7954541 30.57043457 -51.84692383 29.97485352 C-50.9267749 29.39405029 -50.00662598 28.81324707 -49.05859375 28.21484375 C-47.00544818 26.92539927 -44.95205782 25.63634449 -42.8984375 24.34765625 C-41.88507324 23.71118164 -40.87170898 23.07470703 -39.82763672 22.41894531 C-34.23510345 18.91490619 -28.62750426 15.4348968 -23.00268555 11.98291016 C-19.2353577 9.6687622 -15.49287537 7.33930309 -11.82421875 4.87109375 C-11.2314917 4.48042725 -10.63876465 4.08976074 -10.02807617 3.68725586 C-8.50892813 2.68113085 -7.00370329 1.65406497 -5.5 0.625 C-2.80859375 -0.47265625 -2.80859375 -0.47265625 0 0 Z " fill="#DFDFDF" transform="translate(1392.80859375,464.47265625)"/>
<path d="M0 0 C0.63212791 24.23403979 1.10750239 48.46683675 1.39892864 72.70747375 C1.53787752 83.96469457 1.72707909 95.21678051 2.03686523 106.47070312 C2.3069195 116.28596686 2.48037324 126.09751311 2.54038936 135.91638851 C2.5754609 141.11277333 2.65709262 146.29853041 2.85471153 151.4914856 C4.04514683 184.00570562 4.04514683 184.00570562 -2.64627457 191.28224373 C-8.75780633 196.82973005 -16.17564247 199.97269396 -23.8447504 202.78606033 C-27.9843389 204.3787111 -31.55154228 206.5261609 -35.234375 208.96484375 C-36.33354248 209.63402832 -37.43270996 210.30321289 -38.56518555 210.99267578 C-39.61617432 211.63446777 -40.66716309 212.27625977 -41.75 212.9375 C-44.10504265 214.37179409 -46.46076924 215.8049636 -48.81640625 217.23828125 C-49.8955127 217.89521973 -50.97461914 218.5521582 -52.08642578 219.22900391 C-57.34942879 222.42808417 -62.63194316 225.59402061 -67.91796875 228.75488281 C-80.91475543 236.52735139 -93.89827155 244.32019187 -106.83242798 252.1965332 C-118.18894398 259.11168609 -129.59693445 265.93446374 -141.03909302 272.70690918 C-150.39556617 278.24631577 -159.7161219 283.83981419 -169 289.5 C-180.24077372 296.35220853 -191.54113105 303.09920588 -202.87158203 309.80200195 C-209.80719778 313.90667962 -216.72842069 318.03312871 -223.625 322.203125 C-224.67169357 322.83511559 -224.67169357 322.83511559 -225.73953247 323.47987366 C-229.09103373 325.5035565 -232.43999755 327.53120928 -235.78466797 329.56616211 C-236.97871779 330.2878018 -238.17288435 331.00924838 -239.3671875 331.73046875 C-240.93122314 332.68022583 -240.93122314 332.68022583 -242.52685547 333.64916992 C-245 335 -245 335 -247 335 C-250.71468291 311.16275732 -250.71468291 311.16275732 -247 301 C-241.17497233 293.32557904 -231.64860441 289.6952085 -223.05126953 285.88183594 C-216.96271622 283.13346337 -211.31382906 279.63114077 -205.6060791 276.17861938 C-203.15803435 274.70653223 -200.69038689 273.2693466 -198.2215271 271.83253479 C-191.98195028 268.20015024 -185.82735996 264.45707093 -179.73242188 260.58837891 C-174.46976762 257.25937259 -169.11933498 254.09101004 -163.75 250.9375 C-155.0797838 245.84415861 -146.46427762 240.66569928 -137.875 235.4375 C-135.47661279 233.97778192 -133.07821343 232.51808389 -130.6796875 231.05859375 C-129.81210815 230.53065468 -129.81210815 230.53065468 -128.92700195 229.99205017 C-123.96376559 226.9738144 -118.98518747 223.98179437 -114 221 C-106.81716337 216.70361327 -99.66154519 212.36396156 -92.51290894 208.01092529 C-91.93114899 207.65669495 -91.34938904 207.3024646 -90.75 206.9375 C-90.17041534 206.58455872 -89.59083069 206.23161743 -88.99368286 205.86798096 C-77.69100024 198.98937591 -66.32042987 192.22762011 -54.92285156 185.50756836 C-53.64499187 184.75276369 -52.36731788 183.99764453 -51.08984375 183.2421875 C-50.48113434 182.88252396 -49.87242493 182.52286041 -49.24526978 182.15229797 C-44.44090457 179.29798975 -39.7406263 176.29793931 -35.07641602 173.21923828 C-33 172 -33 172 -31 172 C-31.01382689 171.20946763 -31.02765379 170.41893526 -31.04189968 169.60444736 C-31.37348245 150.34946988 -31.62153226 131.09506358 -31.77718258 111.83783817 C-31.85446077 102.524881 -31.95976258 93.21383179 -32.1315918 83.90209961 C-32.28132899 75.7836882 -32.37792306 67.66665841 -32.41132742 59.5469045 C-32.43085112 55.24850867 -32.47654393 50.95406421 -32.58595085 46.65693855 C-33.22741649 20.4776468 -33.22741649 20.4776468 -29.52795219 14.70170403 C-25.56549156 10.86257677 -21.2336499 9.43166548 -16 8 C-13.55397141 6.7245585 -13.55397141 6.7245585 -11.54296875 5.37109375 C-9.88201172 4.41396484 -9.88201172 4.41396484 -8.1875 3.4375 C-7.04667969 2.77621094 -5.90585938 2.11492188 -4.73046875 1.43359375 C-2 0 -2 0 0 0 Z " fill="#040404" transform="translate(1963,690)"/>
<path d="M0 0 C2.01019482 1.01337232 3.98026099 2.10800254 5.91796875 3.25390625 C6.48335358 3.58598587 7.0487384 3.91806549 7.6312561 4.26020813 C9.48776869 5.35366164 11.33768071 6.45776697 13.1875 7.5625 C14.49612221 8.33711579 15.80496344 9.11136168 17.11401367 9.88525391 C26.46605644 15.42838123 35.73278595 21.10676074 44.97314453 26.83398438 C53.61111399 32.17738135 62.32229059 37.38852382 71.0625 42.5625 C71.74048645 42.9639624 72.4184729 43.3654248 73.11700439 43.77905273 C75.81564082 45.37689672 78.5144057 46.97452334 81.21340942 48.57174683 C95.74489247 57.17376447 110.21890417 65.86143083 124.54638672 74.79956055 C132.03273334 79.44735169 139.60499303 83.94449906 147.18869019 88.43078613 C152.55483544 91.60607476 157.91599742 94.78977934 163.27593994 97.9755249 C164.84806937 98.90971942 166.4208274 99.84285586 167.99365234 100.77587891 C170.33668532 102.17188677 172.67045286 103.58164509 175 105 C175.63977783 105.37858154 176.27955566 105.75716309 176.9387207 106.1472168 C178.625 107.1875 178.625 107.1875 181 109 C181 109.99 181 110.98 181 112 C179.58227539 113.16333008 179.58227539 113.16333008 177.59765625 114.26953125 C176.87610352 114.68106445 176.15455078 115.09259766 175.41113281 115.51660156 C174.63608398 115.94424805 173.86103516 116.37189453 173.0625 116.8125 C171.49464229 117.6966498 169.92822117 118.58335219 168.36328125 119.47265625 C167.22947021 120.11678467 167.22947021 120.11678467 166.07275391 120.77392578 C162.82844152 122.69299961 159.82151414 124.90872857 156.859375 127.234375 C155 128 155 128 152.640625 127.36328125 C149.67631606 125.83289098 146.84356153 124.18396628 144 122.4375 C138.71791188 119.21710124 133.40390157 116.05574008 128.05859375 112.94140625 C127.43715485 112.57897324 126.81571594 112.21654022 126.17544556 111.84312439 C123.65014468 110.37070881 121.12473393 108.89852143 118.59594727 107.43209839 C111.39494362 103.25515259 104.31101011 98.95522392 97.33215332 94.41644287 C91.15050042 90.4140561 84.81904546 86.6767504 78.47113037 82.94577026 C67.89772052 76.72862812 57.37774903 70.44156087 46.97729492 63.93823242 C41.80380658 60.71241028 36.59845729 57.54497442 31.3671875 54.4140625 C30.69815399 54.01363235 30.02912048 53.61320221 29.33981323 53.20063782 C26.02497338 51.21821606 22.70782092 49.23975743 19.38818359 47.26538086 C18.15967581 46.532649 16.93131914 45.79966371 15.703125 45.06640625 C15.11459747 44.71636032 14.52606995 44.36631439 13.91970825 44.00566101 C9.78815873 41.52900786 5.82873521 38.87462254 1.95605469 36.01147461 C-0.59720729 34.6911845 -2.15348314 34.6427943 -5 35 C-7.4659438 36.08333653 -7.4659438 36.08333653 -9.88671875 37.67578125 C-10.81572998 38.25086426 -11.74474121 38.82594727 -12.7019043 39.41845703 C-13.68715088 40.04349121 -14.67239746 40.66852539 -15.6875 41.3125 C-17.22627808 42.26938721 -17.22627808 42.26938721 -18.79614258 43.24560547 C-20.88624425 44.54544176 -22.97374684 45.84946688 -25.05859375 47.15771484 C-29.08264642 49.67809179 -33.13297846 52.15406108 -37.1875 54.625 C-37.90663574 55.06513428 -38.62577148 55.50526855 -39.36669922 55.95874023 C-44.82807598 59.29882125 -50.31750482 62.59060438 -55.8125 65.875 C-62.57845483 69.92127436 -69.30448377 74.02575199 -76 78.1875 C-84.11913203 83.23166509 -92.26706114 88.22695732 -100.4375 93.1875 C-101.30846313 93.71648895 -101.30846313 93.71648895 -102.19702148 94.25616455 C-109.12821872 98.46398166 -116.07330683 102.64777549 -123.03515625 106.8046875 C-123.70276474 107.20369766 -124.37037323 107.60270782 -125.05821228 108.0138092 C-128.27011535 109.93333764 -131.48367458 111.84994993 -134.70092773 113.76049805 C-135.88414151 114.46631622 -137.06716945 115.17244604 -138.25 115.87890625 C-139.37792969 116.55195801 -140.50585938 117.22500977 -141.66796875 117.91845703 C-143.96848626 119.35560623 -146.16515381 120.79879686 -148.36328125 122.37451172 C-149.41902344 123.12619629 -150.47476562 123.87788086 -151.5625 124.65234375 C-152.49191406 125.34191162 -153.42132812 126.03147949 -154.37890625 126.74194336 C-157 128 -157 128 -159.546875 127.37890625 C-160.35640625 126.92386719 -161.1659375 126.46882813 -162 126 C-163.15048828 125.3659021 -163.15048828 125.3659021 -164.32421875 124.71899414 C-165.10410156 124.24582764 -165.88398437 123.77266113 -166.6875 123.28515625 C-167.98300781 122.50301758 -167.98300781 122.50301758 -169.3046875 121.70507812 C-170.63886719 120.89200195 -170.63886719 120.89200195 -172 120.0625 C-172.88945313 119.52431641 -173.77890625 118.98613281 -174.6953125 118.43164062 C-176.35649458 117.42625356 -178.01676158 116.41935172 -179.67578125 115.41040039 C-181.36089099 114.38782907 -183.07026291 113.40490014 -184.79296875 112.44702148 C-185.52128906 111.96950439 -186.24960938 111.4919873 -187 111 C-187 110.34 -187 109.68 -187 109 C-185.93652344 108.4121875 -185.93652344 108.4121875 -184.8515625 107.8125 C-175.59130512 102.61061208 -166.55449539 97.07168764 -157.51953125 91.48925781 C-156.3724247 90.78055223 -155.22528896 90.0718939 -154.078125 89.36328125 C-153.21229797 88.8284462 -153.21229797 88.8284462 -152.32897949 88.2828064 C-145.77974978 84.24101872 -139.20478013 80.24180591 -132.625 76.25 C-131.73749557 75.71153946 -131.73749557 75.71153946 -130.83206177 75.16220093 C-121.09139456 69.25444667 -111.33076357 63.38052023 -101.55517578 57.53076172 C-98.81504117 55.88919435 -96.07724082 54.24378433 -93.33984375 52.59765625 C-82.32182885 45.97429628 -71.28509836 39.38448295 -60.22476196 32.83215332 C-48.97440889 26.1659016 -37.74650673 19.46455432 -26.5625 12.6875 C-25.69726212 12.1644931 -25.69726212 12.1644931 -24.81454468 11.63092041 C-23.16799424 10.63506147 -21.52341932 9.63593852 -19.87890625 8.63671875 C-18.37094482 7.72092041 -18.37094482 7.72092041 -16.83251953 6.78662109 C-13.4495823 4.65282221 -10.21202364 2.34758967 -7.01538086 -0.05541992 C-4.22167317 -1.36479061 -2.91218764 -0.95316847 0 0 Z " fill="#040404" transform="translate(1604,253)"/>
<path d="M0 0 C5.05770941 4.18680281 9.58023385 8.58858245 14 13.4375 C18.07317816 17.87890074 22.20166744 22.22778089 26.48193359 26.47045898 C28.77767077 28.78354895 30.85025379 31.25211234 32.92236328 33.76416016 C34.95045065 36.08039372 34.95045065 36.08039372 37.52563477 37.88891602 C42.05068004 41.47903116 45.10572515 44.61645242 45.81079102 50.46508789 C46.10614987 55.69555023 45.87478893 60.89734187 45.625 66.125 C45.57476171 67.95821142 45.52914796 69.79155572 45.48828125 71.625 C45.37885004 76.08665213 45.20677911 80.54184232 45 85 C45.59748047 84.78778809 46.19496094 84.57557617 46.81054688 84.35693359 C48.00260742 83.94435303 48.00260742 83.94435303 49.21875 83.5234375 C50.00185547 83.24935059 50.78496094 82.97526367 51.59179688 82.69287109 C58.52214944 80.69891929 65.62849324 81.73734913 72 85 C78.74900645 89.59858773 83.52047643 95.15612256 86 103 C87.4254066 111.17063423 85.06516941 118.49924491 80.45703125 125.265625 C77.55761862 128.84842321 75.01030028 131.08594501 70.86425781 133.11181641 C70.14135559 133.46692291 69.41845337 133.82202942 68.67364502 134.18789673 C68.12134216 134.45589081 67.56903931 134.72388489 67 135 C66.4121768 142.57256293 66.01245143 150.13921668 65.73657227 157.72949219 C65.62154437 160.30366481 65.46501783 162.87635435 65.26489258 165.4453125 C64.21357027 177.94843906 64.21357027 177.94843906 67 190 C72.60830054 196.26035288 80.1556048 199.8254887 87.79795837 203.05160522 C90 204 90 204 91 205 C91.08851529 207.59359322 91.11525945 210.16039691 91.09765625 212.75390625 C91.09553383 213.91707619 91.09553383 213.91707619 91.09336853 215.10374451 C91.08775345 217.59003494 91.07519846 220.0762366 91.0625 222.5625 C91.05748694 224.24413933 91.0529237 225.92578006 91.04882812 227.60742188 C91.03777913 231.73831566 91.02050445 235.86914276 91 240 C83.42701451 235.9763772 76.05837509 231.68262385 68.74975586 227.19824219 C65.68082547 225.31586211 62.60620987 223.44282213 59.53125 221.5703125 C58.90230835 221.18723938 58.2733667 220.80416626 57.62536621 220.40948486 C51.28201209 216.55229329 44.89440805 212.77195322 38.5 209 C25.77820124 201.48842471 13.14550298 193.83681767 0.52929688 186.14990234 C-4.78744827 182.91062068 -10.10727482 179.67641237 -15.42816162 176.44393921 C-16.59579476 175.7345084 -17.76331696 175.02489498 -18.9307251 174.31509399 C-25.29686731 170.44469377 -31.67203348 166.59051649 -38.0703125 162.7734375 C-38.92774803 162.2613826 -38.92774803 162.2613826 -39.80250549 161.73898315 C-42.50623291 160.12460296 -45.21173107 158.5133652 -47.9206543 156.90771484 C-48.88140869 156.3348877 -49.84216309 155.76206055 -50.83203125 155.171875 C-51.66452393 154.6778418 -52.4970166 154.18380859 -53.35473633 153.67480469 C-54.22767334 153.12211914 -55.10061035 152.56943359 -56 152 C-56.61189682 151.65967239 -57.22379364 151.31934479 -57.85423279 150.96870422 C-59.81732707 149.77457991 -61.41219085 148.66385036 -63 147 C-63.64993902 143.98312482 -63.83390484 142.06097857 -63.68359375 139.07421875 C-63.6687368 137.95283257 -63.6687368 137.95283257 -63.65357971 136.80879211 C-63.61455062 134.43298753 -63.52677742 132.06189437 -63.4375 129.6875 C-63.40237007 128.07233262 -63.37043397 126.45709241 -63.34179688 124.84179688 C-63.26482988 120.89273022 -63.14414952 116.94716223 -63 113 C-55.41297228 116.61905728 -48.23545292 120.74981511 -41.0625 125.125 C-30.46155568 131.56993158 -19.75146522 137.81016032 -9 144 C-8.81152052 136.31723945 -8.72796521 128.63816414 -8.71313477 120.953125 C-8.69622901 118.34609649 -8.65637556 115.73910192 -8.59204102 113.1328125 C-7.84779561 94.56511844 -7.84779561 94.56511844 -16.2109375 78.6796875 C-17.8719582 76.95466335 -19.57049252 75.2979373 -21.32388306 73.66714478 C-24.23181826 70.7747756 -26.54951659 67.44751996 -28.9375 64.125 C-35.00770125 55.92558705 -41.27466569 47.88393671 -47.56469727 39.85253906 C-48.03834717 39.24120117 -48.51199707 38.62986328 -49 38 C-49.55550537 37.30358398 -50.11101074 36.60716797 -50.68334961 35.88964844 C-52 34 -52 34 -52 32 C-49.734375 30.203125 -49.734375 30.203125 -46.75 28.25 C-45.77546875 27.59515625 -44.8009375 26.9403125 -43.796875 26.265625 C-41 25 -41 25 -39.03759766 25.66113281 C-36.64486935 27.23334969 -35.30772618 28.8578115 -33.6015625 31.15625 C-32.96452393 32.00469482 -32.32748535 32.85313965 -31.67114258 33.72729492 C-30.99591553 34.6422876 -30.32068848 35.55728027 -29.625 36.5 C-28.18451914 38.42387031 -26.74309654 40.34703582 -25.30078125 42.26953125 C-24.57842285 43.23584473 -23.85606445 44.2021582 -23.11181641 45.19775391 C-19.58218435 49.88135121 -15.95454269 54.48820619 -12.30908203 59.08203125 C-11.22134061 60.46749574 -10.16398326 61.87707303 -9.12915039 63.30249023 C-7.38981295 65.50612966 -5.64908513 67.35737914 -3.66577148 69.32446289 C4.69897627 78.26721226 6.97584795 86.24213611 6.59182167 98.22866249 C6.56280958 98.96918043 6.53379749 99.70969837 6.50390625 100.47265625 C6.47815207 101.21788229 6.45239788 101.96310833 6.42586327 102.73091698 C6.16509033 109.76451162 5.75851602 116.78491316 5.17456055 123.79907227 C3.23214985 141.38157722 3.23214985 141.38157722 9.54412842 157.00799561 C16.90059747 163.46801446 26.1780845 167.04557868 35 171 C40.61 174.3 46.22 177.6 52 181 C52 165.82 52 150.64 52 135 C50.02 134.34 48.04 133.68 46 133 C40.7548662 129.90145121 37.01872157 126.34081508 34 121 C33.64946564 120.39365219 33.29893127 119.78730438 32.93777466 119.1625824 C29.56697806 111.38925932 30.93111266 100.93523132 31.0703125 92.62109375 C31.08120583 90.29493426 31.08892284 87.96875811 31.09375 85.64257812 C31.10161316 82.03166909 31.12526946 78.42484642 31.20214844 74.81469727 C32.23450889 59.7741275 32.23450889 59.7741275 26.34187317 46.67147827 C24.02651366 44.59298523 21.53571552 42.79825568 19 41 C17.11743164 38.98925781 17.11743164 38.98925781 15.52734375 37.01953125 C12.67722259 33.684898 9.63176327 30.58363426 6.50390625 27.51171875 C5.77957901 26.79920456 5.77957901 26.79920456 5.0406189 26.07229614 C3.03696965 24.10518157 1.0303362 22.14131366 -0.98510742 20.1862793 C-2.47461499 18.73890304 -3.95467072 17.28239748 -5.43359375 15.82421875 C-6.31072021 14.96916748 -7.18784668 14.11411621 -8.09155273 13.2331543 C-10 11 -10 11 -10 8 C-7.8125 5.95703125 -7.8125 5.95703125 -5 3.8125 C-3.6078125 2.73935547 -3.6078125 2.73935547 -2.1875 1.64453125 C-1.465625 1.10183594 -0.74375 0.55914063 0 0 Z " fill="#050504" transform="translate(1397,786)"/>
<path d="M0 0 C7.0922733 4.17538478 12.28135704 10.37546227 14.35546875 18.38671875 C15.56317182 26.96644263 13.65681884 34.09424189 9.10546875 41.390625 C4.58823134 47.33233217 -1.46962586 50.756641 -8.828125 51.8671875 C-15.74183394 52.16849166 -20.60636072 51.07262329 -26.5234375 47.48046875 C-28.83931165 46.08117919 -28.83931165 46.08117919 -32.64453125 46.38671875 C-34.98667101 47.49473102 -37.1630596 48.6480452 -39.39453125 49.94921875 C-40.0704834 50.3361792 -40.74643555 50.72313965 -41.44287109 51.12182617 C-52.01438284 57.24863049 -62.36273152 63.78762416 -72.64453125 70.38671875 C-73.7332251 70.89565674 -74.82191895 71.40459473 -75.94360352 71.92895508 C-79.02059784 74.72892813 -79.06576923 75.20089834 -79.2746582 79.15185547 C-79.25479511 81.12383925 -79.20561263 83.09566661 -79.1328125 85.06640625 C-79.1171253 87.21353657 -79.1021742 89.36067238 -79.08789062 91.5078125 C-79.02966591 94.88779399 -78.95690054 98.26668294 -78.86791992 101.64599609 C-78.79286122 104.91188361 -78.77268411 108.17477086 -78.7578125 111.44140625 C-78.69271233 112.95104446 -78.69271233 112.95104446 -78.626297 114.49118042 C-78.62611437 121.36512179 -78.62611437 121.36512179 -81.55030823 124.29844666 C-83.85520312 125.85054649 -86.16772456 127.13129497 -88.64453125 128.38671875 C-90.14875233 129.31772418 -91.64602755 130.26014545 -93.1328125 131.21875 C-94.73969495 132.21416391 -96.34783285 133.2075532 -97.95703125 134.19921875 C-99.29350708 135.02510498 -99.29350708 135.02510498 -100.65698242 135.86767578 C-108.83160592 140.9084031 -117.04631597 145.88270356 -125.26296997 150.85446167 C-134.31499014 156.33349657 -143.33122138 161.86618553 -152.23388672 167.5859375 C-157.38374007 170.86069844 -162.58137598 173.93029549 -167.98135376 176.76913452 C-170.96544411 178.3430524 -173.92383987 179.96255536 -176.88269043 181.58331299 C-178.33195273 182.35982704 -179.79356096 183.11378704 -181.26721191 183.84295654 C-189.3152011 187.55573045 -189.3152011 187.55573045 -194.32254028 194.39532471 C-194.95143354 198.15192615 -194.94102699 201.76155097 -194.73632812 205.5546875 C-194.62982453 210.00064627 -195.37514745 212.30859147 -198.06640625 215.75 C-198.5871875 216.29011719 -199.10796875 216.83023438 -199.64453125 217.38671875 C-200.2478125 218.01964844 -200.85109375 218.65257812 -201.47265625 219.3046875 C-207.58482162 225.14012097 -213.10468724 227.46705262 -221.51953125 227.88671875 C-229.77486997 227.63687243 -235.90028945 224.57996331 -241.58203125 218.63671875 C-246.97583755 211.81813342 -248.24989359 204.8356988 -247.98828125 196.24609375 C-247.06087171 188.53173261 -242.53036071 183.18033243 -236.64453125 178.38671875 C-230.08263793 173.38788316 -222.60568812 173.44957686 -214.64453125 174.38671875 C-212.08346748 175.19452246 -209.86717528 176.13551703 -207.51171875 177.4140625 C-205.43625421 178.49521453 -203.97739084 179.09660207 -201.64453125 179.38671875 C-199.16699001 178.38099051 -199.16699001 178.38099051 -196.62890625 176.73046875 C-195.63721436 176.12759033 -194.64552246 175.52471191 -193.6237793 174.90356445 C-192.55812744 174.23800537 -191.49247559 173.57244629 -190.39453125 172.88671875 C-189.2856958 172.20762451 -188.17686035 171.52853027 -187.03442383 170.82885742 C-183.56005087 168.69913383 -180.10120455 166.54501428 -176.64453125 164.38671875 C-175.58862793 163.72881348 -174.53272461 163.0709082 -173.44482422 162.39306641 C-169.39998343 159.87040182 -165.35761542 157.34393107 -161.32177734 154.80688477 C-155.10008165 150.8992753 -148.83517744 147.07780419 -142.51953125 143.32421875 C-130.23301186 136.01290495 -118.18605227 128.31552812 -106.21484375 120.5 C-105.23330322 119.86130981 -105.23330322 119.86130981 -104.23193359 119.2097168 C-102.52798602 118.09873211 -100.8282613 116.981278 -99.12890625 115.86328125 C-96.64453125 114.38671875 -96.64453125 114.38671875 -94.64453125 114.38671875 C-94.70892899 113.79806534 -94.77332672 113.20941193 -94.8396759 112.60292053 C-99.32013101 69.73101872 -99.32013101 69.73101872 -92.20117188 60.59179688 C-86.11804098 54.55658171 -77.58801989 51.75313623 -69.67041016 48.94677734 C-63.09352141 46.53276674 -57.3115535 42.7049054 -51.39453125 39.01171875 C-50.32468994 38.38434814 -49.25484863 37.75697754 -48.15258789 37.1105957 C-47.17539795 36.53398193 -46.19820801 35.95736816 -45.19140625 35.36328125 C-44.33385742 34.85877441 -43.47630859 34.35426758 -42.59277344 33.83447266 C-40.34942721 32.45614515 -40.34942721 32.45614515 -39.64453125 29.38671875 C-39.65005583 28.01109868 -39.69567924 26.63536608 -39.76953125 25.26171875 C-39.80940867 17.06026316 -37.21701458 11.13619147 -31.6171875 5.1796875 C-22.38400928 -3.21244874 -11.52633962 -5.22258632 0 0 Z " fill="#050605" transform="translate(1816.64453125,507.61328125)"/>
<path d="M0 0 C0.49238284 14.24626569 0.86032213 28.49119956 1.08805561 42.7442503 C1.19740211 49.36416974 1.3454846 55.97835372 1.58422852 62.5949707 C1.81346906 68.98867665 1.93815936 75.37689368 1.9924221 81.77439308 C2.03104953 84.20672916 2.10650393 86.63878359 2.22033119 89.06876183 C3.0526631 107.58423274 3.0526631 107.58423274 -2.03143501 113.27306747 C-7.04246353 117.33887839 -12.54680647 120.17414 -18.41323853 122.8031559 C-22.14478081 124.52966776 -25.58225391 126.65682178 -29.06640625 128.828125 C-30.30862984 129.56638629 -31.55253784 130.30182791 -32.79882812 131.03320312 C-36.82913084 133.40668012 -40.85508657 135.78742392 -44.87890625 138.171875 C-45.56522125 138.57857422 -46.25153625 138.98527344 -46.95864868 139.40429688 C-54.80085142 144.05850336 -62.58547282 148.8059294 -70.36962891 153.55639648 C-76.78261256 157.46240318 -83.21798289 161.32619162 -89.68359375 165.14453125 C-90.41430084 165.5763974 -91.14500793 166.00826355 -91.89785767 166.45321655 C-95.46452348 168.56023228 -99.03388649 170.6624695 -102.60742188 172.7578125 C-103.90371715 173.52201446 -105.19994452 174.28633161 -106.49609375 175.05078125 C-107.63232178 175.71762939 -108.7685498 176.38447754 -109.93920898 177.0715332 C-113.03516764 178.93879997 -113.03516764 178.93879997 -115.78149414 181.24682617 C-118 183 -118 183 -120 183 C-119.94199219 183.67804688 -119.88398437 184.35609375 -119.82421875 185.0546875 C-119.42456716 193.29892889 -121.03902819 199.63371944 -126.6796875 205.8515625 C-133.64907646 212.1395001 -139.93357027 213.61999792 -149.23046875 213.41015625 C-156.2653523 212.6447026 -161.54178845 209.89503165 -166.375 204.75 C-170.78194273 198.96588767 -173.78761825 192.77516434 -173.375 185.38671875 C-171.76598857 175.14603143 -167.34829554 168.75785207 -159.16015625 162.62109375 C-153.27329024 159.04914757 -146.66967914 159.05060787 -140 160 C-135.22402622 161.71202235 -131.20256948 164.19828701 -127 167 C-123.33613708 166.65943437 -120.70174729 165.46899645 -117.578125 163.5859375 C-116.7310498 163.08030273 -115.88397461 162.57466797 -115.01123047 162.05371094 C-114.10002441 161.49973633 -113.18881836 160.94576172 -112.25 160.375 C-111.28336426 159.79524414 -110.31672852 159.21548828 -109.32080078 158.61816406 C-107.25856429 157.38035956 -105.19823005 156.13938122 -103.13964844 154.89550781 C-100.09034841 153.05454627 -97.03474886 151.22459174 -93.9765625 149.3984375 C-82.29683212 142.41861633 -70.65921203 135.37080792 -59.03787231 128.29440308 C-50.13624823 122.87557464 -41.1946669 117.52884879 -32.1887207 112.28466797 C-31.36976318 111.80529785 -30.55080566 111.32592773 -29.70703125 110.83203125 C-29.0106958 110.42702393 -28.31436035 110.0220166 -27.59692383 109.60473633 C-26.73993896 109.07517334 -25.8829541 108.54561035 -25 108 C-23.87436142 107.61451996 -23.87436142 107.61451996 -22.72598267 107.22125244 C-19.59523516 105.84019327 -18.063748 104.76317843 -16 102 C-14.56156717 96.24125829 -15.06543631 90.08347455 -15.26058197 84.20172501 C-15.36049497 81.09802175 -15.40041725 77.99868801 -15.4241333 74.89352417 C-15.50314321 66.07214487 -15.69709796 57.25400788 -15.91357422 48.43505859 C-16.04204505 43.03331723 -16.10694082 37.63363977 -16.13513947 32.23049545 C-16.15949401 30.17682558 -16.20904017 28.12328954 -16.2845993 26.07086563 C-16.86139267 10.39196697 -16.86139267 10.39196697 -13.69898987 6.32814789 C-9.9749135 3.04895882 -5.0696916 0 0 0 Z " fill="#070707" transform="translate(1898,729)"/>
<path d="M0 0 C3.60589735 1.61865572 6.90269749 3.65628184 10.25 5.75 C11.21800537 6.33910156 12.18601074 6.92820312 13.18334961 7.53515625 C16.13395163 9.33858352 19.06910787 11.16474505 22 13 C22.83740723 13.52271484 23.67481445 14.04542969 24.53759766 14.58398438 C28.42342008 17.01510615 32.29727856 19.46450696 36.1640625 21.92578125 C41.57452041 25.36890218 46.99926271 28.78842602 52.4375 32.1875 C53.33218994 32.75275391 54.22687988 33.31800781 55.14868164 33.90039062 C55.98520264 34.42181641 56.82172363 34.94324219 57.68359375 35.48046875 C58.42150146 35.94348389 59.15940918 36.40649902 59.91967773 36.88354492 C61.98509978 37.99200344 63.6859187 38.64766521 66 39 C68.0660036 38.07576292 68.0660036 38.07576292 70 36.625 C75.87836031 32.51474025 81.94704436 32.07033284 89 33 C98.31364157 36.20765023 103.96672547 40.8434333 108.875 49.1875 C111.25523863 57.25386423 110.84623612 65.09357173 107.3125 72.75 C102.88301916 80.34339573 96.2744621 84.354981 88 87 C80.267982 88.46177455 73.11121112 85.79505748 66.73046875 81.45703125 C61.05056428 76.85198811 58.28156533 71.844696 56 65 C56.15339844 64.15308594 56.30679687 63.30617188 56.46484375 62.43359375 C57.03414955 58.82485367 57.06622205 56.51681306 56 53 C52.22459627 49.03248501 46.97477837 46.65411894 42.17529297 44.1484375 C39.03973776 42.49303327 36.02690601 40.6566396 33 38.8125 C32.41677979 38.46541992 31.83355957 38.11833984 31.23266602 37.76074219 C27.08344107 35.29005509 22.98527538 32.74446617 18.8984375 30.171875 C17.82335938 29.49535889 16.74828125 28.81884277 15.640625 28.12182617 C13.49510406 26.76884553 11.35180006 25.4123417 9.2109375 24.05200195 C8.2209375 23.42769287 7.2309375 22.80338379 6.2109375 22.16015625 C5.32712402 21.59949463 4.44331055 21.03883301 3.53271484 20.46118164 C1.00875634 19.00505173 -1.18459527 17.77001319 -4 17 C-6.22013838 17.67825996 -6.22013838 17.67825996 -8.2734375 19.15625 C-9.08603027 19.67695068 -9.89862305 20.19765137 -10.73583984 20.73413086 C-11.6067627 21.31686768 -12.47768555 21.89960449 -13.375 22.5 C-15.27002451 23.721308 -17.16588716 24.94131629 -19.0625 26.16015625 C-20.53203125 27.11559326 -20.53203125 27.11559326 -22.03125 28.09033203 C-26.75740463 31.13046209 -31.56562648 34.03152791 -36.375 36.9375 C-38.30751763 38.11160732 -40.23980795 39.28608887 -42.171875 40.4609375 C-45.0864646 42.23099846 -48.00124014 44.00075297 -50.91601562 45.77050781 C-60.40335813 51.53227082 -69.88826807 57.29646653 -79.31958008 63.1496582 C-81.93050323 64.76938656 -84.54521426 66.3828645 -87.16015625 67.99609375 C-90.2708104 69.91768819 -93.35965222 71.86793528 -96.43359375 73.84765625 C-97.76812887 74.69026304 -99.10275783 75.53272123 -100.4375 76.375 C-101.02208984 76.76276611 -101.60667969 77.15053223 -102.20898438 77.55004883 C-105.00651925 79.2935771 -106.75084409 80.00664838 -110.07421875 79.91796875 C-113.19185919 78.93980386 -115.61989652 77.68736302 -118.375 75.9375 C-119.24898437 75.38964844 -120.12296875 74.84179688 -121.0234375 74.27734375 C-121.67570312 73.85582031 -122.32796875 73.43429687 -123 73 C-121.65955194 68.97865582 -119.14103925 68.00755211 -115.640625 66.0078125 C-114.98900391 65.62578674 -114.33738281 65.24376099 -113.66601562 64.85015869 C-112.26335521 64.02896674 -110.8583531 63.2117643 -109.45129395 62.39813232 C-105.74896279 60.2568656 -102.06349477 58.08685664 -98.375 55.921875 C-97.64339661 55.49365448 -96.91179321 55.06543396 -96.15802002 54.62423706 C-90.46936997 51.29088182 -84.84010144 47.87135847 -79.25 44.375 C-71.2048059 39.35279968 -63.11255626 34.41227357 -55 29.5 C-46.49750377 24.3498731 -38.01178239 19.17469054 -29.5625 13.9375 C-28.28802002 13.15113159 -28.28802002 13.15113159 -26.98779297 12.34887695 C-23.31862446 10.08104101 -19.66773005 7.79621139 -16.06640625 5.421875 C-15.18069946 4.84771851 -15.18069946 4.84771851 -14.27709961 4.26196289 C-12.77340183 3.28401492 -11.28059228 2.28937638 -9.7890625 1.29296875 C-6.0724987 -0.42997609 -4.08248314 -0.60185061 0 0 Z " fill="#060606" transform="translate(1605,330)"/>
<path d="M0 0 C1.97909398 -0.02686553 3.95828971 -0.04633375 5.9375 -0.0625 C7.03964844 -0.07410156 8.14179687 -0.08570313 9.27734375 -0.09765625 C12 0 12 0 13 1 C12.83351634 10.7343978 10.72275466 20.5104103 9.15673828 30.10253906 C8.82018963 32.1720477 8.48748435 34.24213464 8.15625 36.3125 C8.04842697 36.97587875 7.94060394 37.63925751 7.82951355 38.32273865 C7.06766105 43.1518392 6.65509394 47.9360664 6.50317383 52.82055664 C5.83018834 55.73552097 4.55064323 56.67467708 2.1875 58.4375 C0.12565087 59.62612974 -1.93697679 60.8134092 -4 62 C-5.44197767 63.03315549 -6.8762968 64.07704605 -8.3046875 65.12890625 C-20.4909721 73.74229451 -29.64326648 75.41773764 -44.34082031 73.36962891 C-47.11639011 72.98382165 -49.89081248 72.68999434 -52.6796875 72.41796875 C-53.50968262 72.33699951 -54.33967773 72.25603027 -55.19482422 72.17260742 C-55.79053223 72.11564697 -56.38624023 72.05868652 -57 72 C-57.13400208 72.72575729 -57.26800415 73.45151459 -57.40606689 74.19926453 C-57.96099413 76.81606492 -58.66731176 79.27264732 -59.50292969 81.81176758 C-59.80704773 82.7407637 -60.11116577 83.66975983 -60.42449951 84.62690735 C-60.75363342 85.62272324 -61.08276733 86.61853912 -61.421875 87.64453125 C-61.7637384 88.68711594 -62.10560181 89.72970062 -62.45782471 90.80387878 C-63.55250991 94.14098184 -64.6510351 97.47680412 -65.75 100.8125 C-66.83127626 104.10057599 -67.91170445 107.38892621 -68.99084473 110.67770386 C-69.69105002 112.81063474 -70.3927751 114.94306734 -71.09606934 117.07498169 C-72.62548779 121.72602399 -74.13131589 126.37819716 -75.52539062 131.07177734 C-75.74962708 131.82150314 -75.97386353 132.57122894 -76.20489502 133.34367371 C-76.78088549 135.28962289 -77.34274093 137.23974098 -77.90332031 139.19018555 C-79 142 -79 142 -82 144 C-88.02509625 143.65444301 -93.29859167 140.87503924 -98.72265625 138.43945312 C-102.95628925 136.61043278 -106.33449152 135.15334047 -111 136 C-114.41084848 137.57846664 -117.56043896 139.51842837 -120.75 141.5 C-121.70592041 142.07951416 -122.66184082 142.65902832 -123.64672852 143.25610352 C-126.77319138 145.15687803 -129.88704528 147.07719466 -133 149 C-135.13898477 150.31174948 -137.27831028 151.62294347 -139.41796875 152.93359375 C-148.17467391 158.30843072 -156.92577074 163.69032766 -165.62109375 169.1640625 C-167.70567212 170.46363317 -169.7903052 171.7631161 -171.875 173.0625 C-172.83784912 173.67665771 -173.80069824 174.29081543 -174.79272461 174.92358398 C-175.68354736 175.47602783 -176.57437012 176.02847168 -177.4921875 176.59765625 C-178.65790283 177.33254272 -178.65790283 177.33254272 -179.84716797 178.08227539 C-182 179 -182 179 -184.18676758 178.7590332 C-186.66001876 177.72371101 -187.43430405 176.39839877 -188.8125 174.125 C-189.47185547 173.07699219 -189.47185547 173.07699219 -190.14453125 172.0078125 C-191 170 -191 170 -190 167 C-187.59366581 165.34237158 -185.20518941 163.84706922 -182.6875 162.375 C-181.04277157 161.392257 -179.39825467 160.40915994 -177.75390625 159.42578125 C-176.84141113 158.8838916 -175.92891602 158.34200195 -174.98876953 157.78369141 C-171.74115017 155.84551896 -168.50737097 153.88524758 -165.27734375 151.91796875 C-164.69597656 151.56393478 -164.11460938 151.20990082 -163.515625 150.84513855 C-162.32222282 150.11832302 -161.1288433 149.39147025 -159.93548584 148.6645813 C-150.19247383 142.73380233 -140.43835013 136.82061673 -130.6328125 130.99365234 C-127.07647783 128.87554125 -123.55379061 126.73173865 -120.09765625 124.453125 C-119.5039624 124.06713135 -118.91026855 123.6811377 -118.29858398 123.28344727 C-116.7655034 122.27950872 -115.24532431 121.25594 -113.7265625 120.23046875 C-109.64225368 118.38726348 -107.04134347 119.25806593 -102.93310547 120.7512207 C-100.64506311 121.64861458 -98.38446403 122.59552599 -96.125 123.5625 C-95.34125 123.89185547 -94.5575 124.22121094 -93.75 124.56054688 C-91.83091244 125.36796786 -89.9151135 126.18319769 -88 127 C-87.88011719 125.98164062 -87.76023437 124.96328125 -87.63671875 123.9140625 C-87.02705259 120.16629873 -86.08085122 116.94608596 -84.8125 113.375 C-82.70515422 107.30609035 -80.89915394 101.1912241 -79.1875 95 C-76.95643209 87.01477487 -74.45556134 79.14972196 -71.75 71.3125 C-71.40864014 70.31412109 -71.06728027 69.31574219 -70.71557617 68.28710938 C-70.39177979 67.36349609 -70.0679834 66.43988281 -69.734375 65.48828125 C-69.44788086 64.66884033 -69.16138672 63.84939941 -68.86621094 63.00512695 C-68 61 -68 61 -66 59 C-62.9453125 58.76953125 -62.9453125 58.76953125 -59.125 58.8125 C-58.45243164 58.81894531 -57.77986328 58.82539062 -57.08691406 58.83203125 C-52.9558736 58.89459315 -48.86613583 59.12727904 -44.75 59.5 C-43.77933594 59.57863281 -42.80867188 59.65726563 -41.80859375 59.73828125 C-40.00273165 59.90656047 -38.20067396 60.12900134 -36.41015625 60.41796875 C-26.63877059 61.43184185 -18.7462267 55.29810251 -11 50 C-10.28714844 49.58290771 -9.57429688 49.16581543 -8.83984375 48.73608398 C-6.2189917 46.26303742 -6.23894204 44.28743077 -5.83984375 40.7421875 C-5.68741211 39.4835791 -5.53498047 38.2249707 -5.37792969 36.92822266 C-5.23106287 35.57715462 -5.08425395 34.2260803 -4.9375 32.875 C-4.6953702 30.82776383 -4.44660668 28.78141242 -4.19699097 26.7350769 C-4.03214464 25.38319085 -3.86915253 24.03107737 -3.70803833 22.67874146 C-3.06033707 17.29292219 -2.23438342 11.95861154 -1.25 6.625 C-1.12230225 5.93132324 -0.99460449 5.23764648 -0.86303711 4.52294922 C-0.58106708 3.01422132 -0.29165527 1.50688558 0 0 Z " fill="#070707" transform="translate(1846,541)"/>
<path d="M0 0 C1.890625 0.6640625 1.890625 0.6640625 4 2 C4.984375 4.3984375 4.984375 4.3984375 5.75 7.375 C10.36328155 22.40420629 21.31114152 33.73220401 35 41 C39.2774942 42.84118229 43.59832689 44.48145777 48 46 C48 47.32 48 48.64 48 50 C47.23816406 50.30292969 46.47632812 50.60585937 45.69140625 50.91796875 C27.29134376 58.38366202 14.30093218 68.50994076 6 87 C5.62746094 87.82371094 5.25492188 88.64742187 4.87109375 89.49609375 C3.90256328 91.65925762 2.94574518 93.82679831 2 96 C1.01 95.67 0.02 95.34 -1 95 C-2.01386337 92.70908749 -2.86883891 90.48423242 -3.6875 88.125 C-10.29438536 70.54700982 -22.55146022 60.4938685 -39.16601562 52.85253906 C-41.80603306 51.62531051 -44.4027387 50.31476271 -47 49 C-46.67 48.01 -46.34 47.02 -46 46 C-43.52857986 44.79849129 -41.1121067 43.75451231 -38.5625 42.75 C-21.86182845 35.76319188 -10.87397116 24.89420101 -3.78125 8.1171875 C-3.09020004 6.38462653 -2.41485439 4.64564424 -1.76171875 2.8984375 C-1 1 -1 1 0 0 Z " fill="#EEEEEE" transform="translate(3059,1184)"/>
<path d="M0 0 C3.58162689 1.90840908 6.22870536 4.21255485 8.875 7.3125 C9.9578125 8.55 9.9578125 8.55 11.0625 9.8125 C15.50361673 15.93817825 15.58011594 21.97746277 14.875 29.3125 C13.10649201 37.58531925 8.64314137 42.4714795 1.875 47.3125 C-4.37157227 51.15654447 -10.99502428 51.0826066 -18.125 50.3125 C-24.23963134 48.68254556 -30.08317681 45.22955984 -34.125 40.3125 C-35.55956682 37.69201601 -36.86240673 35.01949997 -38.125 32.3125 C-52.69870545 30.5295579 -62.26820748 32.05701824 -74.24487305 40.86401367 C-80.47705178 45.39868789 -80.47705178 45.39868789 -84.4140625 44.875 C-85.30867188 44.359375 -86.20328125 43.84375 -87.125 43.3125 C-87.96804688 42.88710938 -88.81109375 42.46171875 -89.6796875 42.0234375 C-90.44539063 41.58257812 -91.21109375 41.14171875 -92 40.6875 C-93.17175781 40.01847656 -93.17175781 40.01847656 -94.3671875 39.3359375 C-94.94726562 38.99820313 -95.52734375 38.66046875 -96.125 38.3125 C-94.64557696 33.84403859 -91.19319172 32.23801742 -87.3125 30.0625 C-81.55851606 26.82629335 -81.55851606 26.82629335 -76.2265625 22.94921875 C-65.24310361 14.2885922 -51.3990355 16.5996529 -38.125 17.3125 C-37.82625977 16.36777832 -37.52751953 15.42305664 -37.21972656 14.44970703 C-34.85211682 7.66474155 -29.25615143 2.79610877 -23.125 -0.6875 C-16.20074643 -2.99558452 -6.76034079 -2.83203466 0 0 Z " fill="#050505" transform="translate(1624.125,395.6875)"/>
<path d="M0 0 C3.76110572 0.02155361 5.955079 0.3286021 8.875 2.75 C11.71350408 5.80685055 12.24513814 6.49929576 12.5625 10.625 C12.28624042 14.76889365 11.64631639 16.9520693 9.3125 20.375 C5.29637205 23.05241863 2.10975776 24.07460009 -2.6875 23.375 C-6.68208798 21.22406801 -9.00345369 19.58127093 -10.6875 15.375 C-11.20968363 12.30236159 -11.2456414 9.44477772 -10.6875 6.375 C-8.25 3.375 -8.25 3.375 -5.6875 1.375 C-4.05531064 -0.25718936 -2.24806873 0.08736889 0 0 Z " fill="#D7D5D6" transform="translate(1361.6875,558.625)"/>
<path d="M0 0 C3.21182757 1.5329177 5.69540217 3.29543064 8 6 C9.48151613 10.65746088 9.47064683 14.07551515 7.25 18.4375 C5.01979784 20.97745246 3.35530254 22.75475478 -0.05078125 23.37109375 C-4.31020603 23.49615458 -7.12290024 23.39700198 -10.5 20.625 C-14.13542732 16.80780131 -14.39236502 14.44157848 -14.359375 9.328125 C-13.75455722 5.40995764 -11.83123243 3.69641184 -9 1 C-5.93570224 -0.53214888 -3.3834358 -0.22938548 0 0 Z " fill="#D9D8D8" transform="translate(1691,378)"/>
<path d="M0 0 C3.19401851 1.52441793 5.75418735 3.26212727 8 6 C8.83453849 10.04055721 8.91767215 14.24200738 6.98046875 17.953125 C3.91063465 21.77418738 1.48655588 22.83171066 -3.3125 23.375 C-8.25480563 22.87239265 -9.56012162 21.51987555 -13 18 C-15.30996678 14.74504681 -15.40143766 11.93408903 -15 8 C-11.96933505 1.14112669 -7.28818465 -0.78087693 0 0 Z " fill="#D8D7D8" transform="translate(1807,521)"/>
<path d="M0 0 C3.07469523 1.70251719 5.40613254 3.81226508 7 7 C7.39431433 11.73177192 7.45299639 14.09400722 5.3125 18.375 C2.82873403 21.19441002 1.65122129 22.23579089 -2 23 C-7.29244443 22.81098413 -10.24669832 21.75330168 -14 18 C-16.52599898 14.51171569 -16.50729677 11.20331607 -16 7 C-12.02449969 0.37909241 -7.38991577 -1.14072525 0 0 Z " fill="#DCDBDB" transform="translate(1600,697)"/>
<path d="M0 0 C4.08278998 1.80402348 6.79877913 4.10553231 9 8 C9.45983332 12.95898679 8.71325928 16.12214243 5.5625 20 C1.9804097 22.7957778 -0.29077673 23.3973973 -4.89453125 23.35546875 C-8.65569115 22.72046773 -10.40291048 20.72377681 -13 18 C-14.23740871 14.28777388 -14.55756126 10.85772118 -14 7 C-10.28937969 1.11418847 -6.90600742 -0.59534547 0 0 Z " fill="#DAD9DA" transform="translate(1615,408)"/>
<path d="M0 0 C3.07469523 1.70251719 5.40613254 3.81226508 7 7 C7.40104417 12.21357417 6.87196113 15.58948826 4 20 C-0.14981533 22.59252855 -4.24177752 22.69673972 -9 22 C-12.47060168 19.93240751 -14.77725393 17.89055567 -16 14 C-16.43002518 10.68266291 -16.71759662 8.19510514 -14.94921875 5.25 C-10.55722649 -0.13958342 -6.72434509 -1.03798615 0 0 Z " fill="#D6D5D5" transform="translate(1460,884)"/>
<path d="M0 0 C3.70390021 2.02666238 5.65363011 3.48044516 8 7 C8.6820176 10.76904461 8.83098707 14.45628171 6.984375 17.88671875 C3.88581073 21.74125804 1.54001531 22.82565864 -3.3125 23.375 C-8.20301701 22.87765929 -9.57084492 21.42915508 -13 18 C-14.74221711 14.51556578 -14.58675154 10.80112955 -14 7 C-10.60242193 0.86407543 -6.79897031 -0.56658086 0 0 Z " fill="#D6D5D5" transform="translate(1755,904)"/>
<path d="M0 0 C2.8100346 1.79363911 4.50940468 3.01880935 6 6 C6.41667651 12.35431684 5.86046203 15.61106551 1.66796875 20.578125 C-1.37965898 23.17610273 -5.11484112 23.23215361 -9 23 C-12.5084862 20.98448665 -14.74503552 18.87898112 -16 15 C-16.51316889 11.06570518 -16.17834015 9.32483385 -14.25 5.8125 C-10.10686662 0.63358327 -6.81723675 -1.2579425 0 0 Z " fill="#D5D4D4" transform="translate(1822,796)"/>
<path d="M0 0 C0.33 0.66 0.66 1.32 1 2 C2.6630584 2.67561748 4.33094605 3.33933281 6 4 C9.03227254 5.61010117 12.01843756 7.29810597 15 9 C14.67 9.66 14.34 10.32 14 11 C12.68 11 11.36 11 10 11 C10 11.66 10 12.32 10 13 C8.95199219 13.55429687 7.90398437 14.10859375 6.82421875 14.6796875 C5.44526849 15.41137539 4.06636466 16.1431508 2.6875 16.875 C1.99720703 17.23980469 1.30691406 17.60460937 0.59570312 17.98046875 C-0.07138672 18.33496094 -0.73847656 18.68945312 -1.42578125 19.0546875 C-2.03848877 19.37937012 -2.65119629 19.70405273 -3.2824707 20.03857422 C-4.90258648 20.94547058 -6.45515434 21.9701029 -8 23 C-11.63 21.02 -15.26 19.04 -19 17 C-15.60583942 11.34306569 -15.60583942 11.34306569 -12.4375 9.1875 C-11.83808594 8.76855469 -11.23867187 8.34960938 -10.62109375 7.91796875 C-9 7 -9 7 -7 7 C-6.67 6.01 -6.34 5.02 -6 4 C-4.04402816 2.60287726 -2.04563599 1.26220093 0 0 Z " fill="#C3C2C3" transform="translate(1527,432)"/>
<path d="M0 0 C0 0.99 0 1.98 0 3 C-2.40921705 5.40921705 -4.94334509 6.53812156 -8 8 C-8.66 7.34 -9.32 6.68 -10 6 C-6.7 4.02 -3.4 2.04 0 0 Z " fill="#D0CDCD" transform="translate(1820,744)"/>
<path d="M0 0 C0.66 0.99 1.32 1.98 2 3 C1.34 3.66 0.68 4.32 0 5 C-0.39764263 6.98821313 -0.73775349 8.98944339 -1 11 C-1.66 11 -2.32 11 -3 11 C-3.32613618 6.32538149 -2.70582788 3.83325617 0 0 Z " fill="#BEBDBD" transform="translate(1795,524)"/>
<path d="M0 0 C0 0.99 0 1.98 0 3 C-3.0080208 6.0080208 -5.85463326 6.5289356 -10 7 C-6.80331012 4.3513141 -3.60513403 2.06007659 0 0 Z " fill="#D3D3D4" transform="translate(1530,329)"/>
<path d="M0 0 C0.53625 0.2475 1.0725 0.495 1.625 0.75 C-3.79038462 4.81153846 -3.79038462 4.81153846 -6.75 4.5 C-7.28625 4.2525 -7.8225 4.005 -8.375 3.75 C-2.95961538 -0.31153846 -2.95961538 -0.31153846 0 0 Z " fill="#E8E8E8" transform="translate(1479.375,323.25)"/>
<path d="M0 0 C1.65 0 3.3 0 5 0 C2.525 3.465 2.525 3.465 0 7 C-1 3 -1 3 0 0 Z " fill="#EEEDED" transform="translate(1789,613)"/>
<path d="M0 0 C0.66 0 1.32 0 2 0 C0.50163895 3.11198065 -1.19933758 6.0534615 -3 9 C-3.75 7.3125 -3.75 7.3125 -4 5 C-2.1875 2.25 -2.1875 2.25 0 0 Z " fill="#CDCCCC" transform="translate(1605,410)"/>
<path d="M0 0 C0.66 0.33 1.32 0.66 2 1 C-2.95 3.97 -2.95 3.97 -8 7 C-8 6.01 -8 5.02 -8 4 C-6.71349294 3.30289269 -5.42059335 2.61757124 -4.125 1.9375 C-3.40570312 1.55464844 -2.68640625 1.17179687 -1.9453125 0.77734375 C-1.30335937 0.52082031 -0.66140625 0.26429688 0 0 Z " fill="#D7D7D8" transform="translate(1564,272)"/>
<path d="M0 0 C0.66 0.33 1.32 0.66 2 1 C-0.64 2.65 -3.28 4.3 -6 6 C-6 5.01 -6 4.02 -6 3 C-4.03533587 1.93224776 -2.03144641 0.93446535 0 0 Z " fill="#E9E8E9" transform="translate(1545,361)"/>
<path d="M0 0 C0.99 0.33 1.98 0.66 3 1 C1.37660195 2.70884005 -0.29319053 4.37446717 -2 6 C-2.66 6 -3.32 6 -4 6 C-2.84826645 3.53199953 -1.95216435 1.95216435 0 0 Z " fill="#CCCBCC" transform="translate(1449,885)"/>
<path d="M0 0 C-3.06117568 2.62386487 -3.73173127 3 -8 3 C-8 2.34 -8 1.68 -8 1 C-4.93251126 -0.86240388 -3.40254489 -1.2151946 0 0 Z " fill="#E8E8E6" transform="translate(1546,285)"/>
</svg>
